<mxfile host="Electron" modified="2023-08-30T09:36:51.106Z" agent="Mozilla/5.0 (Windows NT 10.0; Win64; x64) AppleWebKit/537.36 (KHTML, like Gecko) draw.io/21.6.5 Chrome/114.0.5735.243 Electron/25.3.1 Safari/537.36" etag="ihfYCTqXE2HG_oRW2urX" version="21.6.5" type="device">
  <diagram name="Page-1" id="k9LGXSa-SM9EiK2Z-dp1">
    <mxGraphModel dx="1020" dy="504" grid="1" gridSize="10" guides="1" tooltips="1" connect="1" arrows="1" fold="1" page="1" pageScale="1" pageWidth="850" pageHeight="1100" math="0" shadow="0">
      <root>
        <mxCell id="0" />
        <mxCell id="1" parent="0" />
        <mxCell id="YyfAE5fWjKTB-5lbD5Hy-17" style="edgeStyle=orthogonalEdgeStyle;rounded=0;orthogonalLoop=1;jettySize=auto;html=1;exitX=1;exitY=0.5;exitDx=0;exitDy=0;entryX=0;entryY=0.5;entryDx=0;entryDy=0;" parent="1" source="YyfAE5fWjKTB-5lbD5Hy-1" target="YyfAE5fWjKTB-5lbD5Hy-2" edge="1">
          <mxGeometry relative="1" as="geometry" />
        </mxCell>
        <mxCell id="ISlfnCPcZAz8Zss5DmV7-6" style="edgeStyle=orthogonalEdgeStyle;rounded=0;orthogonalLoop=1;jettySize=auto;html=1;exitX=0;exitY=0.5;exitDx=0;exitDy=0;entryX=1;entryY=0.5;entryDx=0;entryDy=0;" edge="1" parent="1" source="YyfAE5fWjKTB-5lbD5Hy-1" target="ISlfnCPcZAz8Zss5DmV7-5">
          <mxGeometry relative="1" as="geometry" />
        </mxCell>
        <mxCell id="ISlfnCPcZAz8Zss5DmV7-9" style="edgeStyle=orthogonalEdgeStyle;rounded=0;orthogonalLoop=1;jettySize=auto;html=1;exitX=0.5;exitY=0;exitDx=0;exitDy=0;entryX=0.396;entryY=1.075;entryDx=0;entryDy=0;entryPerimeter=0;" edge="1" parent="1" source="YyfAE5fWjKTB-5lbD5Hy-1" target="ISlfnCPcZAz8Zss5DmV7-2">
          <mxGeometry relative="1" as="geometry" />
        </mxCell>
        <mxCell id="ISlfnCPcZAz8Zss5DmV7-11" style="edgeStyle=orthogonalEdgeStyle;rounded=0;orthogonalLoop=1;jettySize=auto;html=1;exitX=0.5;exitY=1;exitDx=0;exitDy=0;entryX=0.5;entryY=0;entryDx=0;entryDy=0;" edge="1" parent="1" source="YyfAE5fWjKTB-5lbD5Hy-1" target="ISlfnCPcZAz8Zss5DmV7-10">
          <mxGeometry relative="1" as="geometry" />
        </mxCell>
        <mxCell id="ISlfnCPcZAz8Zss5DmV7-19" style="edgeStyle=orthogonalEdgeStyle;rounded=0;orthogonalLoop=1;jettySize=auto;html=1;exitX=1;exitY=0;exitDx=0;exitDy=0;" edge="1" parent="1" source="YyfAE5fWjKTB-5lbD5Hy-1" target="ISlfnCPcZAz8Zss5DmV7-18">
          <mxGeometry relative="1" as="geometry" />
        </mxCell>
        <mxCell id="YyfAE5fWjKTB-5lbD5Hy-1" value="Member" style="whiteSpace=wrap;html=1;align=center;" parent="1" vertex="1">
          <mxGeometry x="100" y="450" width="100" height="40" as="geometry" />
        </mxCell>
        <mxCell id="YyfAE5fWjKTB-5lbD5Hy-18" style="edgeStyle=orthogonalEdgeStyle;rounded=0;orthogonalLoop=1;jettySize=auto;html=1;exitX=1;exitY=0.5;exitDx=0;exitDy=0;entryX=0;entryY=0.5;entryDx=0;entryDy=0;" parent="1" source="YyfAE5fWjKTB-5lbD5Hy-2" target="YyfAE5fWjKTB-5lbD5Hy-3" edge="1">
          <mxGeometry relative="1" as="geometry" />
        </mxCell>
        <mxCell id="YyfAE5fWjKTB-5lbD5Hy-2" value="Request" style="shape=rhombus;perimeter=rhombusPerimeter;whiteSpace=wrap;html=1;align=center;" parent="1" vertex="1">
          <mxGeometry x="360" y="440" width="120" height="60" as="geometry" />
        </mxCell>
        <mxCell id="YyfAE5fWjKTB-5lbD5Hy-27" style="edgeStyle=orthogonalEdgeStyle;rounded=0;orthogonalLoop=1;jettySize=auto;html=1;exitX=0.25;exitY=1;exitDx=0;exitDy=0;" parent="1" source="YyfAE5fWjKTB-5lbD5Hy-3" target="YyfAE5fWjKTB-5lbD5Hy-23" edge="1">
          <mxGeometry relative="1" as="geometry" />
        </mxCell>
        <mxCell id="ISlfnCPcZAz8Zss5DmV7-17" style="edgeStyle=orthogonalEdgeStyle;rounded=0;orthogonalLoop=1;jettySize=auto;html=1;exitX=0;exitY=0.25;exitDx=0;exitDy=0;entryX=0.5;entryY=1;entryDx=0;entryDy=0;" edge="1" parent="1" source="YyfAE5fWjKTB-5lbD5Hy-3" target="ISlfnCPcZAz8Zss5DmV7-14">
          <mxGeometry relative="1" as="geometry" />
        </mxCell>
        <mxCell id="YyfAE5fWjKTB-5lbD5Hy-3" value="Book" style="whiteSpace=wrap;html=1;align=center;" parent="1" vertex="1">
          <mxGeometry x="630" y="450" width="100" height="40" as="geometry" />
        </mxCell>
        <mxCell id="YyfAE5fWjKTB-5lbD5Hy-16" style="edgeStyle=orthogonalEdgeStyle;rounded=0;orthogonalLoop=1;jettySize=auto;html=1;exitX=0.5;exitY=1;exitDx=0;exitDy=0;entryX=0.5;entryY=0;entryDx=0;entryDy=0;" parent="1" source="YyfAE5fWjKTB-5lbD5Hy-6" target="YyfAE5fWjKTB-5lbD5Hy-3" edge="1">
          <mxGeometry relative="1" as="geometry" />
        </mxCell>
        <mxCell id="YyfAE5fWjKTB-5lbD5Hy-6" value="Maintains" style="shape=rhombus;perimeter=rhombusPerimeter;whiteSpace=wrap;html=1;align=center;" parent="1" vertex="1">
          <mxGeometry x="620" y="290" width="120" height="60" as="geometry" />
        </mxCell>
        <mxCell id="YyfAE5fWjKTB-5lbD5Hy-14" style="edgeStyle=orthogonalEdgeStyle;rounded=0;orthogonalLoop=1;jettySize=auto;html=1;exitX=0;exitY=0.5;exitDx=0;exitDy=0;entryX=1;entryY=0.5;entryDx=0;entryDy=0;" parent="1" source="YyfAE5fWjKTB-5lbD5Hy-7" target="YyfAE5fWjKTB-5lbD5Hy-8" edge="1">
          <mxGeometry relative="1" as="geometry" />
        </mxCell>
        <mxCell id="YyfAE5fWjKTB-5lbD5Hy-15" style="edgeStyle=orthogonalEdgeStyle;rounded=0;orthogonalLoop=1;jettySize=auto;html=1;exitX=0.5;exitY=1;exitDx=0;exitDy=0;entryX=0.5;entryY=0;entryDx=0;entryDy=0;" parent="1" source="YyfAE5fWjKTB-5lbD5Hy-7" target="YyfAE5fWjKTB-5lbD5Hy-6" edge="1">
          <mxGeometry relative="1" as="geometry" />
        </mxCell>
        <mxCell id="YyfAE5fWjKTB-5lbD5Hy-40" style="edgeStyle=orthogonalEdgeStyle;rounded=0;orthogonalLoop=1;jettySize=auto;html=1;exitX=1;exitY=0.5;exitDx=0;exitDy=0;entryX=0;entryY=0.5;entryDx=0;entryDy=0;" parent="1" source="YyfAE5fWjKTB-5lbD5Hy-7" target="YyfAE5fWjKTB-5lbD5Hy-38" edge="1">
          <mxGeometry relative="1" as="geometry" />
        </mxCell>
        <mxCell id="YyfAE5fWjKTB-5lbD5Hy-7" value="Libarian" style="whiteSpace=wrap;html=1;align=center;" parent="1" vertex="1">
          <mxGeometry x="630" y="120" width="100" height="40" as="geometry" />
        </mxCell>
        <mxCell id="YyfAE5fWjKTB-5lbD5Hy-13" style="edgeStyle=orthogonalEdgeStyle;rounded=0;orthogonalLoop=1;jettySize=auto;html=1;entryX=1;entryY=0.5;entryDx=0;entryDy=0;" parent="1" source="YyfAE5fWjKTB-5lbD5Hy-8" target="YyfAE5fWjKTB-5lbD5Hy-9" edge="1">
          <mxGeometry relative="1" as="geometry" />
        </mxCell>
        <mxCell id="YyfAE5fWjKTB-5lbD5Hy-8" value="Manages" style="shape=rhombus;perimeter=rhombusPerimeter;whiteSpace=wrap;html=1;align=center;" parent="1" vertex="1">
          <mxGeometry x="360" y="110" width="120" height="60" as="geometry" />
        </mxCell>
        <mxCell id="YyfAE5fWjKTB-5lbD5Hy-34" style="edgeStyle=orthogonalEdgeStyle;rounded=0;orthogonalLoop=1;jettySize=auto;html=1;exitX=0.5;exitY=1;exitDx=0;exitDy=0;entryX=0.5;entryY=0;entryDx=0;entryDy=0;" parent="1" source="YyfAE5fWjKTB-5lbD5Hy-9" target="YyfAE5fWjKTB-5lbD5Hy-28" edge="1">
          <mxGeometry relative="1" as="geometry" />
        </mxCell>
        <mxCell id="YyfAE5fWjKTB-5lbD5Hy-36" style="edgeStyle=orthogonalEdgeStyle;rounded=0;orthogonalLoop=1;jettySize=auto;html=1;exitX=0;exitY=0;exitDx=0;exitDy=0;entryX=1;entryY=1;entryDx=0;entryDy=0;" parent="1" source="YyfAE5fWjKTB-5lbD5Hy-9" target="YyfAE5fWjKTB-5lbD5Hy-35" edge="1">
          <mxGeometry relative="1" as="geometry" />
        </mxCell>
        <mxCell id="YyfAE5fWjKTB-5lbD5Hy-9" value="Library" style="whiteSpace=wrap;html=1;align=center;" parent="1" vertex="1">
          <mxGeometry x="100" y="120" width="100" height="40" as="geometry" />
        </mxCell>
        <mxCell id="ISlfnCPcZAz8Zss5DmV7-31" style="edgeStyle=orthogonalEdgeStyle;rounded=0;orthogonalLoop=1;jettySize=auto;html=1;exitX=0.5;exitY=0;exitDx=0;exitDy=0;entryX=0.5;entryY=1;entryDx=0;entryDy=0;" edge="1" parent="1" source="YyfAE5fWjKTB-5lbD5Hy-19" target="YyfAE5fWjKTB-5lbD5Hy-3">
          <mxGeometry relative="1" as="geometry" />
        </mxCell>
        <mxCell id="YyfAE5fWjKTB-5lbD5Hy-19" value="Published" style="shape=rhombus;perimeter=rhombusPerimeter;whiteSpace=wrap;html=1;align=center;" parent="1" vertex="1">
          <mxGeometry x="620" y="590" width="120" height="60" as="geometry" />
        </mxCell>
        <mxCell id="YyfAE5fWjKTB-5lbD5Hy-47" style="edgeStyle=orthogonalEdgeStyle;rounded=0;orthogonalLoop=1;jettySize=auto;html=1;exitX=0.5;exitY=1;exitDx=0;exitDy=0;entryX=0.5;entryY=0;entryDx=0;entryDy=0;" parent="1" source="YyfAE5fWjKTB-5lbD5Hy-20" target="YyfAE5fWjKTB-5lbD5Hy-45" edge="1">
          <mxGeometry relative="1" as="geometry" />
        </mxCell>
        <mxCell id="ISlfnCPcZAz8Zss5DmV7-1" style="edgeStyle=orthogonalEdgeStyle;rounded=0;orthogonalLoop=1;jettySize=auto;html=1;exitX=0;exitY=0.75;exitDx=0;exitDy=0;entryX=1;entryY=0.5;entryDx=0;entryDy=0;" edge="1" parent="1" source="YyfAE5fWjKTB-5lbD5Hy-20" target="YyfAE5fWjKTB-5lbD5Hy-46">
          <mxGeometry relative="1" as="geometry" />
        </mxCell>
        <mxCell id="ISlfnCPcZAz8Zss5DmV7-30" style="edgeStyle=orthogonalEdgeStyle;rounded=0;orthogonalLoop=1;jettySize=auto;html=1;exitX=0.5;exitY=0;exitDx=0;exitDy=0;entryX=0.5;entryY=1;entryDx=0;entryDy=0;" edge="1" parent="1" source="YyfAE5fWjKTB-5lbD5Hy-20" target="YyfAE5fWjKTB-5lbD5Hy-19">
          <mxGeometry relative="1" as="geometry" />
        </mxCell>
        <mxCell id="YyfAE5fWjKTB-5lbD5Hy-20" value="Publisher" style="whiteSpace=wrap;html=1;align=center;" parent="1" vertex="1">
          <mxGeometry x="630" y="750" width="100" height="40" as="geometry" />
        </mxCell>
        <mxCell id="YyfAE5fWjKTB-5lbD5Hy-26" style="edgeStyle=orthogonalEdgeStyle;rounded=0;orthogonalLoop=1;jettySize=auto;html=1;exitX=0;exitY=1;exitDx=0;exitDy=0;entryX=0.44;entryY=0.058;entryDx=0;entryDy=0;entryPerimeter=0;" parent="1" source="YyfAE5fWjKTB-5lbD5Hy-23" target="YyfAE5fWjKTB-5lbD5Hy-25" edge="1">
          <mxGeometry relative="1" as="geometry" />
        </mxCell>
        <mxCell id="YyfAE5fWjKTB-5lbD5Hy-23" value="Written" style="shape=rhombus;perimeter=rhombusPerimeter;whiteSpace=wrap;html=1;align=center;" parent="1" vertex="1">
          <mxGeometry x="320" y="600" width="120" height="60" as="geometry" />
        </mxCell>
        <mxCell id="YyfAE5fWjKTB-5lbD5Hy-43" style="edgeStyle=orthogonalEdgeStyle;rounded=0;orthogonalLoop=1;jettySize=auto;html=1;exitX=0.5;exitY=1;exitDx=0;exitDy=0;entryX=0.5;entryY=0;entryDx=0;entryDy=0;" parent="1" source="YyfAE5fWjKTB-5lbD5Hy-25" target="YyfAE5fWjKTB-5lbD5Hy-41" edge="1">
          <mxGeometry relative="1" as="geometry" />
        </mxCell>
        <mxCell id="YyfAE5fWjKTB-5lbD5Hy-44" style="edgeStyle=orthogonalEdgeStyle;rounded=0;orthogonalLoop=1;jettySize=auto;html=1;exitX=0;exitY=0.5;exitDx=0;exitDy=0;entryX=1;entryY=0.5;entryDx=0;entryDy=0;" parent="1" source="YyfAE5fWjKTB-5lbD5Hy-25" target="YyfAE5fWjKTB-5lbD5Hy-42" edge="1">
          <mxGeometry relative="1" as="geometry" />
        </mxCell>
        <mxCell id="YyfAE5fWjKTB-5lbD5Hy-25" value="Aurthor" style="whiteSpace=wrap;html=1;align=center;" parent="1" vertex="1">
          <mxGeometry x="120" y="700" width="100" height="40" as="geometry" />
        </mxCell>
        <mxCell id="YyfAE5fWjKTB-5lbD5Hy-28" value="Name" style="ellipse;whiteSpace=wrap;html=1;align=center;" parent="1" vertex="1">
          <mxGeometry x="115" y="200" width="70" height="40" as="geometry" />
        </mxCell>
        <mxCell id="YyfAE5fWjKTB-5lbD5Hy-33" style="edgeStyle=orthogonalEdgeStyle;rounded=0;orthogonalLoop=1;jettySize=auto;html=1;exitX=0.5;exitY=1;exitDx=0;exitDy=0;entryX=0.5;entryY=0;entryDx=0;entryDy=0;" parent="1" source="YyfAE5fWjKTB-5lbD5Hy-30" target="YyfAE5fWjKTB-5lbD5Hy-9" edge="1">
          <mxGeometry relative="1" as="geometry" />
        </mxCell>
        <mxCell id="YyfAE5fWjKTB-5lbD5Hy-30" value="Adress" style="ellipse;whiteSpace=wrap;html=1;align=center;" parent="1" vertex="1">
          <mxGeometry x="115" y="20" width="70" height="40" as="geometry" />
        </mxCell>
        <mxCell id="YyfAE5fWjKTB-5lbD5Hy-35" value="Contact" style="ellipse;whiteSpace=wrap;html=1;align=center;" parent="1" vertex="1">
          <mxGeometry x="10" y="70" width="70" height="40" as="geometry" />
        </mxCell>
        <mxCell id="YyfAE5fWjKTB-5lbD5Hy-39" style="edgeStyle=orthogonalEdgeStyle;rounded=0;orthogonalLoop=1;jettySize=auto;html=1;exitX=0.5;exitY=1;exitDx=0;exitDy=0;entryX=0.5;entryY=0;entryDx=0;entryDy=0;" parent="1" source="YyfAE5fWjKTB-5lbD5Hy-37" target="YyfAE5fWjKTB-5lbD5Hy-7" edge="1">
          <mxGeometry relative="1" as="geometry" />
        </mxCell>
        <mxCell id="YyfAE5fWjKTB-5lbD5Hy-37" value="Name" style="ellipse;whiteSpace=wrap;html=1;align=center;" parent="1" vertex="1">
          <mxGeometry x="645" y="40" width="70" height="40" as="geometry" />
        </mxCell>
        <mxCell id="YyfAE5fWjKTB-5lbD5Hy-38" value="Contact" style="ellipse;whiteSpace=wrap;html=1;align=center;" parent="1" vertex="1">
          <mxGeometry x="760" y="120" width="60" height="40" as="geometry" />
        </mxCell>
        <mxCell id="YyfAE5fWjKTB-5lbD5Hy-41" value="Name" style="ellipse;whiteSpace=wrap;html=1;align=center;" parent="1" vertex="1">
          <mxGeometry x="130" y="800" width="80" height="40" as="geometry" />
        </mxCell>
        <mxCell id="YyfAE5fWjKTB-5lbD5Hy-42" value="Contact" style="ellipse;whiteSpace=wrap;html=1;align=center;" parent="1" vertex="1">
          <mxGeometry x="5" y="700" width="80" height="40" as="geometry" />
        </mxCell>
        <mxCell id="YyfAE5fWjKTB-5lbD5Hy-45" value="Name" style="ellipse;whiteSpace=wrap;html=1;align=center;" parent="1" vertex="1">
          <mxGeometry x="640" y="850" width="80" height="40" as="geometry" />
        </mxCell>
        <mxCell id="YyfAE5fWjKTB-5lbD5Hy-46" value="contact" style="ellipse;whiteSpace=wrap;html=1;align=center;" parent="1" vertex="1">
          <mxGeometry x="520" y="760" width="80" height="40" as="geometry" />
        </mxCell>
        <mxCell id="ISlfnCPcZAz8Zss5DmV7-2" value="Name" style="ellipse;whiteSpace=wrap;html=1;align=center;fontStyle=4;" vertex="1" parent="1">
          <mxGeometry x="115" y="370" width="80" height="40" as="geometry" />
        </mxCell>
        <mxCell id="ISlfnCPcZAz8Zss5DmV7-5" value="Member ID" style="ellipse;whiteSpace=wrap;html=1;align=center;" vertex="1" parent="1">
          <mxGeometry y="450" width="70" height="40" as="geometry" />
        </mxCell>
        <mxCell id="ISlfnCPcZAz8Zss5DmV7-10" value="Contact" style="ellipse;whiteSpace=wrap;html=1;align=center;" vertex="1" parent="1">
          <mxGeometry x="115" y="510" width="70" height="40" as="geometry" />
        </mxCell>
        <mxCell id="ISlfnCPcZAz8Zss5DmV7-13" style="edgeStyle=orthogonalEdgeStyle;rounded=0;orthogonalLoop=1;jettySize=auto;html=1;exitX=0;exitY=0.5;exitDx=0;exitDy=0;entryX=1;entryY=0.5;entryDx=0;entryDy=0;" edge="1" parent="1" source="ISlfnCPcZAz8Zss5DmV7-12" target="YyfAE5fWjKTB-5lbD5Hy-3">
          <mxGeometry relative="1" as="geometry" />
        </mxCell>
        <mxCell id="ISlfnCPcZAz8Zss5DmV7-12" value="Tittle" style="ellipse;whiteSpace=wrap;html=1;align=center;" vertex="1" parent="1">
          <mxGeometry x="770" y="450" width="70" height="40" as="geometry" />
        </mxCell>
        <mxCell id="ISlfnCPcZAz8Zss5DmV7-14" value="price" style="ellipse;whiteSpace=wrap;html=1;align=center;" vertex="1" parent="1">
          <mxGeometry x="540" y="380" width="80" height="40" as="geometry" />
        </mxCell>
        <mxCell id="ISlfnCPcZAz8Zss5DmV7-18" value="Address" style="ellipse;whiteSpace=wrap;html=1;align=center;" vertex="1" parent="1">
          <mxGeometry x="240" y="370" width="80" height="40" as="geometry" />
        </mxCell>
        <mxCell id="ISlfnCPcZAz8Zss5DmV7-22" value="m" style="text;html=1;align=center;verticalAlign=middle;resizable=0;points=[];autosize=1;strokeColor=none;fillColor=none;" vertex="1" parent="1">
          <mxGeometry x="265" y="440" width="30" height="30" as="geometry" />
        </mxCell>
        <mxCell id="ISlfnCPcZAz8Zss5DmV7-23" value="m" style="text;html=1;align=center;verticalAlign=middle;resizable=0;points=[];autosize=1;strokeColor=none;fillColor=none;" vertex="1" parent="1">
          <mxGeometry x="520" y="440" width="30" height="30" as="geometry" />
        </mxCell>
        <mxCell id="ISlfnCPcZAz8Zss5DmV7-24" value="1" style="text;html=1;align=center;verticalAlign=middle;resizable=0;points=[];autosize=1;strokeColor=none;fillColor=none;" vertex="1" parent="1">
          <mxGeometry x="225" y="618" width="30" height="30" as="geometry" />
        </mxCell>
        <mxCell id="ISlfnCPcZAz8Zss5DmV7-25" value="m" style="text;html=1;align=center;verticalAlign=middle;resizable=0;points=[];autosize=1;strokeColor=none;fillColor=none;" vertex="1" parent="1">
          <mxGeometry x="515" y="508" width="30" height="30" as="geometry" />
        </mxCell>
        <mxCell id="ISlfnCPcZAz8Zss5DmV7-26" value="1" style="text;html=1;align=center;verticalAlign=middle;resizable=0;points=[];autosize=1;strokeColor=none;fillColor=none;" vertex="1" parent="1">
          <mxGeometry x="245" y="108" width="30" height="30" as="geometry" />
        </mxCell>
        <mxCell id="ISlfnCPcZAz8Zss5DmV7-27" value="1" style="text;html=1;align=center;verticalAlign=middle;resizable=0;points=[];autosize=1;strokeColor=none;fillColor=none;" vertex="1" parent="1">
          <mxGeometry x="545" y="108" width="30" height="30" as="geometry" />
        </mxCell>
        <mxCell id="ISlfnCPcZAz8Zss5DmV7-28" value="m" style="text;html=1;align=center;verticalAlign=middle;resizable=0;points=[];autosize=1;strokeColor=none;fillColor=none;" vertex="1" parent="1">
          <mxGeometry x="645" y="198" width="30" height="30" as="geometry" />
        </mxCell>
        <mxCell id="ISlfnCPcZAz8Zss5DmV7-29" value="m" style="text;html=1;align=center;verticalAlign=middle;resizable=0;points=[];autosize=1;strokeColor=none;fillColor=none;" vertex="1" parent="1">
          <mxGeometry x="645" y="375" width="30" height="30" as="geometry" />
        </mxCell>
        <mxCell id="ISlfnCPcZAz8Zss5DmV7-32" value="1" style="text;html=1;align=center;verticalAlign=middle;resizable=0;points=[];autosize=1;strokeColor=none;fillColor=none;" vertex="1" parent="1">
          <mxGeometry x="680" y="538" width="30" height="30" as="geometry" />
        </mxCell>
        <mxCell id="ISlfnCPcZAz8Zss5DmV7-33" value="m" style="text;html=1;align=center;verticalAlign=middle;resizable=0;points=[];autosize=1;strokeColor=none;fillColor=none;" vertex="1" parent="1">
          <mxGeometry x="690" y="700" width="30" height="30" as="geometry" />
        </mxCell>
      </root>
    </mxGraphModel>
  </diagram>
</mxfile>
